<svg width="192" height="73" viewBox="0 0 192 73" fill="none" xmlns="http://www.w3.org/2000/svg">
<path d="M1.62 66V51.726L7.65 51.636C8.766 51.612 9.606 51.864 10.17 52.392C10.734 52.908 11.016 53.676 11.016 54.696V57.612C11.016 58.572 10.734 59.334 10.17 59.898C9.606 60.45 8.766 60.726 7.65 60.726H3.888V66H1.62ZM8.406 53.616H3.888V58.764H8.406C8.598 58.764 8.694 58.668 8.694 58.476V53.904C8.694 53.712 8.598 53.616 8.406 53.616ZM18.0087 54.822V56.586H15.2907C15.1227 56.586 15.0387 56.67 15.0387 56.838L15.0567 66H12.8967L12.8607 54.984H14.8047L14.9667 56.1C15.2067 55.248 15.8727 54.822 16.9647 54.822H18.0087ZM22.1044 66.126C21.0124 66.126 20.2204 65.916 19.7284 65.496C19.2484 65.076 19.0084 64.368 19.0084 63.372V57.45C19.0084 56.454 19.2184 55.77 19.6384 55.398C20.0584 55.014 20.7784 54.822 21.7984 54.822H24.0124C25.0444 54.822 25.7764 55.014 26.2084 55.398C26.6524 55.77 26.8744 56.454 26.8744 57.45V61.752H21.2044V64.056C21.2044 64.212 21.2824 64.29 21.4384 64.29H26.5864V66.126H22.1044ZM21.4384 56.586C21.2824 56.586 21.2044 56.67 21.2044 56.838V60.168H24.6964V56.838C24.6964 56.67 24.6184 56.586 24.4624 56.586H21.4384ZM34.3079 56.694H31.7339V63.93C31.7339 64.086 31.8119 64.164 31.9679 64.164H34.3079V66H32.6339C31.5539 66 30.7679 65.79 30.2759 65.37C29.7959 64.95 29.5559 64.248 29.5559 63.264V56.694H28.2599V54.984H29.5559V52.176H31.7339V54.984H34.3079V56.694ZM41.1106 56.694H38.5366V63.93C38.5366 64.086 38.6146 64.164 38.7706 64.164H41.1106V66H39.4366C38.3566 66 37.5706 65.79 37.0786 65.37C36.5986 64.95 36.3586 64.248 36.3586 63.264V56.694H35.0626V54.984H36.3586V52.176H38.5366V54.984H41.1106V56.694ZM48.0607 68.358V65.01C47.8087 65.778 47.1667 66.162 46.1347 66.162H44.8567C43.9567 66.162 43.2967 65.988 42.8767 65.64C42.4567 65.28 42.2467 64.644 42.2467 63.732V54.984H44.4247V64.146C44.4247 64.314 44.5087 64.398 44.6767 64.398H48.0607L48.0427 54.984H50.2207L50.2387 67.692C50.2387 68.688 49.9927 69.396 49.5007 69.816C49.0207 70.236 48.2407 70.446 47.1607 70.446H42.6067V68.61H47.8267C47.9827 68.61 48.0607 68.526 48.0607 68.358ZM64.7595 59.934H59.5215V66H57.2535V51.726H65.1735V53.688H59.5215V57.99H64.7595V59.934ZM66.592 57.558C66.592 56.562 66.832 55.86 67.312 55.452C67.792 55.032 68.578 54.822 69.67 54.822H71.632C72.736 54.822 73.528 55.032 74.008 55.452C74.488 55.86 74.728 56.562 74.728 57.558V63.426C74.728 64.422 74.488 65.13 74.008 65.55C73.528 65.958 72.736 66.162 71.632 66.162H69.67C68.578 66.162 67.792 65.958 67.312 65.55C66.832 65.13 66.592 64.422 66.592 63.426V57.558ZM69.04 56.64C68.872 56.64 68.788 56.724 68.788 56.892V64.092C68.788 64.26 68.872 64.344 69.04 64.344H72.298C72.454 64.344 72.532 64.26 72.532 64.092V56.892C72.532 56.724 72.454 56.64 72.298 56.64H69.04ZM82.1161 54.822V56.586H79.3981C79.2301 56.586 79.1461 56.67 79.1461 56.838L79.1641 66H77.0041L76.9681 54.984H78.9121L79.0741 56.1C79.3141 55.248 79.9801 54.822 81.0721 54.822H82.1161ZM88.2998 54.822C89.0078 54.822 89.5658 54.93 89.9738 55.146C90.3818 55.362 90.6578 55.728 90.8018 56.244C91.0178 55.296 91.7018 54.822 92.8538 54.822H93.8618C94.7738 54.822 95.4338 55.002 95.8418 55.362C96.2618 55.722 96.4718 56.358 96.4718 57.27V66H94.2938V56.838C94.2938 56.67 94.2158 56.586 94.0598 56.586H91.1618C91.0058 56.586 90.9278 56.67 90.9278 56.838L90.9098 56.91C90.9218 57.03 90.9278 57.15 90.9278 57.27V66H88.7318V56.838C88.7318 56.67 88.6538 56.586 88.4978 56.586H85.5638C85.4078 56.586 85.3298 56.67 85.3298 56.838L85.3658 66H83.1698L83.1518 54.984H85.0958L85.2578 56.1C85.4978 55.248 86.1638 54.822 87.2558 54.822H88.2998ZM101.054 66.162C100.142 66.162 99.4764 65.988 99.0564 65.64C98.6484 65.28 98.4444 64.644 98.4444 63.732V54.984H100.622V64.146C100.622 64.314 100.7 64.398 100.856 64.398H104.258L104.24 54.984H106.418L106.454 66H104.51L104.312 64.794C104.216 65.25 104.006 65.592 103.682 65.82C103.358 66.048 102.908 66.162 102.332 66.162H101.054ZM109.052 66V50.844H111.248V66H109.052ZM115.899 66.162C114.999 66.162 114.339 65.988 113.919 65.64C113.511 65.28 113.307 64.644 113.307 63.732V62.112C113.307 61.152 113.523 60.486 113.955 60.114C114.399 59.73 115.131 59.538 116.151 59.538H118.977V57.036C118.977 56.88 118.899 56.802 118.743 56.802L113.973 56.82V54.966H118.257C119.289 54.954 120.033 55.152 120.489 55.56C120.945 55.956 121.173 56.652 121.173 57.648V66H119.211L119.031 64.758C118.935 65.226 118.725 65.58 118.401 65.82C118.089 66.048 117.639 66.162 117.051 66.162H115.899ZM118.977 64.398V61.122H115.701C115.545 61.122 115.467 61.2 115.467 61.356V64.146C115.467 64.314 115.545 64.398 115.701 64.398H118.977ZM127.772 54.426C127.772 53.43 128.03 52.704 128.546 52.248C129.074 51.792 129.884 51.564 130.976 51.564H134.684C135.764 51.564 136.568 51.792 137.096 52.248C137.624 52.704 137.888 53.43 137.888 54.426V63.318C137.888 64.302 137.624 65.022 137.096 65.478C136.568 65.934 135.764 66.162 134.684 66.162H130.976C129.884 66.162 129.074 65.934 128.546 65.478C128.03 65.022 127.772 64.302 127.772 63.318V54.426ZM130.31 53.598C130.154 53.598 130.076 53.676 130.076 53.832V63.894C130.076 64.05 130.154 64.128 130.31 64.128H135.332C135.488 64.128 135.566 64.05 135.566 63.894V53.832C135.566 53.676 135.488 53.598 135.332 53.598H130.31ZM145.825 54.822C146.725 54.822 147.385 55.002 147.805 55.362C148.225 55.722 148.435 56.358 148.435 57.27V66H146.257V56.838C146.257 56.67 146.179 56.586 146.023 56.586H142.873C142.705 56.586 142.621 56.67 142.621 56.838L142.639 66H140.479L140.443 54.984H142.387L142.549 56.1C142.789 55.248 143.455 54.822 144.547 54.822H145.825ZM153.589 66.126C152.497 66.126 151.705 65.916 151.213 65.496C150.733 65.076 150.493 64.368 150.493 63.372V57.45C150.493 56.454 150.703 55.77 151.123 55.398C151.543 55.014 152.263 54.822 153.283 54.822H155.497C156.529 54.822 157.261 55.014 157.693 55.398C158.137 55.77 158.359 56.454 158.359 57.45V61.752H152.689V64.056C152.689 64.212 152.767 64.29 152.923 64.29H158.071V66.126H153.589ZM152.923 56.586C152.767 56.586 152.689 56.67 152.689 56.838V60.168H156.181V56.838C156.181 56.67 156.103 56.586 155.947 56.586H152.923Z" fill="white"/>
<path d="M73.9805 18.7302C57.399 18.7302 54.4973 19.5716 47.3953 26.3678C40.7529 32.7242 29.9636 43.0086 29.9636 43.0086H53.532L59.1546 37.628C62.8513 34.0906 64.7577 33.7241 72.5198 33.7241H112.72L128.388 18.7302L131.154 16.0834L147.962 2.38419e-05H70.3354C49.0104 2.38419e-05 43.2145 2.41567 31.5881 13.0065C20.3034 23.6359 0 43.0086 0 43.0086H25.3381C31.0909 37.6513 41.7642 27.7298 46.6696 23.3008C53.561 17.0771 56.928 16.0834 71.9122 16.0834L99.9653 16.0834L97.1993 18.7302L73.9805 18.7302Z" fill="#E10600"/>
<path d="M179.945 2.38419e-05H152.894L107.951 43.0086H135.001L144.703 33.7241L156.674 33.7241L164.5 26.2352L152.238 26.2598L157 21.4978L170.173 21.4732L191.916 0L179.945 2.38419e-05Z" fill="#E10600"/>
</svg>
